<?xml version="1.0" encoding="UTF-8" standalone="no"?>
<svg xmlns="http://www.w3.org/2000/svg" viewBox="0 0 395 61"
     width="395" height="61">
  <title>bert &amp; erne — brush wordmark (navbar mark)</title>
  <desc>
    V5 dark-knockout brush wordmark from round 10. Cream letters,
    court-yellow ampersand. Outlined paths — no font dependency.
    Transparent background so it works on any dark surface.
    Source font: Permanent Marker (Google Fonts).
  </desc>
  <g id="brush-wordmark" transform="translate(6 0)">
    <path id="word-bert" d="M5.188 22.292Q2.563 21.230 0.844 19.292Q-0.875 17.355-1.937 14.730Q-1.312 13.042 0.063 11.886Q1.438 10.730 3.156 9.917Q4.875 9.105 6.813 8.605Q8.750 8.105 10.563 7.730Q10.938 7.855 10.938 7.730Q10.938 7.605 11.250 7.855Q13.500 7.167 16.438 6.511Q19.375 5.855 22.688 6.042Q23.125 5.792 23.750 5.761Q24.375 5.730 25.063 5.730Q25.750 5.730 26.375 5.699Q27 5.667 27.438 5.480Q27.813 5.917 28.563 6.011Q29.313 6.105 30.125 6.667Q30.375 6.730 30.125 6.449Q29.875 6.167 30.188 6.042Q31 6.042 31.625 6.417Q32.250 6.792 32.781 7.261Q33.313 7.730 33.781 8.105Q34.250 8.480 34.813 8.480Q35.375 9.167 36.156 9.761Q36.938 10.355 37.656 10.980Q38.375 11.605 38.844 12.355Q39.313 13.105 39.313 14.042Q39.250 14.417 39.563 14.480Q39.875 14.542 40 14.855Q40.063 17.167 39.281 18.855Q38.500 20.542 37.313 21.949Q36.125 23.355 34.781 24.605Q33.438 25.855 32.313 27.292Q33.063 28.230 34.031 29.011Q35 29.792 36 30.542Q37 31.292 37.906 32.136Q38.813 32.980 39.438 34.042Q39.625 34.417 40.250 34.542Q40.438 35.292 40.781 36.074Q41.125 36.855 41.438 37.574Q41.750 38.292 41.813 38.855Q41.875 39.417 41.500 39.792Q41.938 40.042 42 40.574Q42.063 41.105 42 41.417Q40.625 43.105 40.125 43.792Q39.625 44.480 39.375 44.792Q39.125 45.105 38.875 45.355Q38.625 45.605 37.750 46.355Q34.438 48.355 30.844 49.949Q27.250 51.542 23.375 52.105Q23.063 52.542 22.469 52.824Q21.875 53.105 21.125 53.292Q20.375 53.480 19.531 53.605Q18.688 53.730 18 53.855Q17.688 53.730 17.656 53.449Q17.625 53.167 17.313 53.042Q17.250 53.792 16.656 53.824Q16.063 53.855 15.188 53.542Q14.313 53.230 13.375 52.667Q12.438 52.105 11.750 51.605Q11.438 52.167 10.969 52.792Q10.500 53.417 10 53.667Q9.125 53.542 8.719 53.480Q8.313 53.417 7.938 53.792Q7.438 53.542 7.188 53.261Q6.938 52.980 6.688 52.699Q6.438 52.417 6.125 52.199Q5.813 51.980 5.188 51.792Q5.313 51.480 5 50.824Q4.688 50.167 4.125 50.042Q4.438 49.542 3.875 48.761Q3.313 47.980 3 46.980Q3.063 46.542 3.094 46.074Q3.125 45.605 3.219 45.199Q3.313 44.792 3.500 44.480Q3.688 44.167 4.125 44.042Q4.063 43.230 3.625 42.480Q4.188 42.042 4.375 41.386Q4.563 40.730 4.719 40.042Q4.875 39.355 5.125 38.699Q5.375 38.042 5.938 37.605Q5.813 37.417 5.688 37.292Q5.563 37.167 5.563 36.855Q6.500 35.292 6.875 34.199Q7.250 33.105 7.469 32.074Q7.688 31.042 7.938 29.855Q8.188 28.667 8.938 26.855Q8.875 25.730 9.188 24.855Q9.500 23.980 9.844 23.136Q10.188 22.292 10.375 21.355Q10.563 20.417 10.313 19.167Q9.250 19.292 8.781 19.917Q8.313 20.542 8.188 21.605Q7.625 22.105 6.750 22.074Q5.875 22.042 5.188 22.292M32.688 34.355Q30.313 33.042 28.344 32.792Q26.375 32.542 24.594 32.824Q22.813 33.105 21.188 33.605Q19.563 34.105 17.938 34.355Q17.125 36.480 16.250 39.042Q15.375 41.605 14.563 44.042Q16.813 43.730 18.688 43.105Q20.563 42.480 22.313 41.699Q24.063 40.917 25.750 40.136Q27.438 39.355 29.250 38.667Q29.438 37.917 30.063 37.480Q30.688 37.042 31.313 36.636Q31.938 36.230 32.375 35.730Q32.813 35.230 32.688 34.355M28.313 14.792Q24.438 14.667 20.688 15.480Q16.938 16.292 14.375 17.855Q15.625 18.917 16.969 19.730Q18.313 20.542 19 21.917Q22 20.730 24.250 18.886Q26.500 17.042 28.313 14.792 M48.718 50.355Q48.218 49.855 47.999 49.167Q47.780 48.480 46.968 48.042Q46.843 47.105 46.624 45.886Q46.405 44.667 46.186 43.386Q45.968 42.105 45.874 40.824Q45.780 39.542 45.968 38.480Q46.093 37.917 46.374 37.417Q46.655 36.917 46.936 36.449Q47.218 35.980 47.374 35.480Q47.530 34.980 47.405 34.480Q47.780 34.417 47.874 34.074Q47.968 33.730 48.468 33.855Q48.905 32.480 49.405 31.292Q49.905 30.105 50.468 28.980Q51.030 27.855 51.624 26.699Q52.218 25.542 52.718 24.105Q51.655 23.105 51.186 21.949Q50.718 20.792 50.468 19.605Q50.218 18.417 50.093 17.199Q49.968 15.980 49.593 14.730Q50.343 13.605 51.405 12.886Q52.468 12.167 53.749 11.699Q55.030 11.230 56.530 10.949Q58.030 10.667 59.718 10.292Q62.718 9.355 65.093 8.824Q67.468 8.292 69.718 7.949Q71.968 7.605 74.405 7.324Q76.843 7.042 80.030 6.480Q80.093 6.667 80.249 6.667Q80.405 6.667 80.655 6.667Q80.843 7.105 81.343 7.105Q81.343 6.917 81.311 6.761Q81.280 6.605 81.280 6.480Q81.405 6.480 81.624 6.542Q81.843 6.605 81.999 6.667Q82.155 6.730 82.280 6.636Q82.405 6.542 82.343 6.230Q83.093 7.542 84.280 8.386Q85.468 9.230 86.905 9.855Q86.968 10.417 86.936 10.667Q86.905 10.917 86.843 11.136Q86.780 11.355 86.780 11.636Q86.780 11.917 86.905 12.417Q85.905 14.105 84.624 15.042Q83.343 15.980 81.905 16.480Q80.468 16.980 78.874 17.230Q77.280 17.480 75.624 17.761Q73.968 18.042 72.280 18.542Q70.593 19.042 68.968 20.042Q68.468 19.855 68.061 19.886Q67.655 19.917 67.218 20.042Q66.780 20.167 66.249 20.292Q65.718 20.417 64.968 20.292Q64.468 20.730 63.811 20.917Q63.155 21.105 62.468 21.292Q62.780 21.980 62.749 22.667Q62.718 23.355 62.905 23.855Q65.530 24.105 68.718 23.824Q71.905 23.542 74.968 23.417Q75.030 23.730 74.905 23.855Q74.780 23.980 74.780 24.292Q75.343 24.667 75.843 25.230Q76.343 25.792 76.874 26.324Q77.405 26.855 77.968 27.199Q78.530 27.542 79.280 27.480Q79.593 28.105 79.718 28.792Q79.843 29.480 79.530 30.230Q78.280 31.042 77.093 31.886Q75.905 32.730 74.624 33.417Q73.343 34.105 71.843 34.542Q70.343 34.980 68.593 34.917Q68.280 34.917 68.061 34.917Q67.843 34.917 67.530 34.667Q66.905 34.980 65.874 34.886Q64.843 34.792 64.155 35.105Q63.280 34.792 62.124 34.792Q60.968 34.792 60.093 34.480Q58.968 36.105 57.968 37.886Q56.968 39.667 56.218 41.667Q58.780 42.042 60.468 41.980Q62.155 41.917 63.655 41.730Q65.155 41.542 66.749 41.355Q68.343 41.167 70.655 41.230Q72.218 40.480 74.249 40.199Q76.280 39.917 78.030 39.355Q78.655 39.542 79.093 40.074Q79.530 40.605 79.936 41.136Q80.343 41.667 80.780 42.042Q81.218 42.417 81.905 42.292Q82.218 42.605 82.311 43.042Q82.405 43.480 82.499 43.855Q82.593 44.230 82.780 44.449Q82.968 44.667 83.468 44.605Q82.280 47.042 80.811 48.355Q79.343 49.667 77.499 50.386Q75.655 51.105 73.374 51.449Q71.093 51.792 68.280 52.292Q67.593 52.417 67.124 52.261Q66.655 52.105 66.155 52.105Q64.405 52.417 61.999 52.730Q59.593 53.042 57.155 52.980Q54.718 52.917 52.468 52.355Q50.218 51.792 48.718 50.355 M88.373 47.105Q88.060 47.167 87.810 46.636Q87.560 46.105 87.248 45.605L87.935 45.605Q87.498 44.230 87.716 43.074Q87.935 41.917 88.248 40.824Q88.560 39.730 88.779 38.699Q88.998 37.667 88.560 36.542Q88.873 36.730 89.029 36.386Q89.185 36.042 89.279 35.511Q89.373 34.980 89.341 34.386Q89.310 33.792 89.248 33.417Q90.060 31.480 90.529 29.417Q90.998 27.355 91.373 25.324Q91.748 23.292 92.216 21.386Q92.685 19.480 93.435 17.792Q94.310 17.667 95.279 18.011Q96.248 18.355 96.560 18.855Q98.498 17.355 99.998 15.230Q101.498 13.105 103.029 11.074Q104.560 9.042 106.498 7.480Q108.435 5.917 111.310 5.605Q112.810 6.667 114.685 7.886Q116.560 9.105 117.748 10.917Q118.248 11.230 118.716 11.574Q119.185 11.917 119.685 12.230L119.685 13.167Q120.560 13.980 121.154 15.074Q121.748 16.167 122.216 17.386Q122.685 18.605 123.123 19.855Q123.560 21.105 124.123 22.167Q123.998 22.542 124.029 22.824Q124.060 23.105 124.154 23.386Q124.248 23.667 124.310 24.011Q124.373 24.355 124.373 24.855Q124.123 28.167 122.216 30.199Q120.310 32.230 117.591 33.511Q114.873 34.792 111.810 35.699Q108.748 36.605 106.248 37.667Q106.248 37.917 106.529 37.917Q106.810 37.917 106.685 38.292Q108.560 39.417 109.591 40.105Q110.623 40.792 111.529 41.261Q112.435 41.730 113.529 42.042Q114.623 42.355 116.560 42.792Q118.498 43.230 119.591 43.511Q120.685 43.792 121.560 43.949Q122.435 44.105 123.435 44.230Q124.435 44.355 126.123 44.542Q126.810 45.230 127.248 46.167Q127.685 47.105 127.873 48.042Q128.060 48.980 127.966 49.824Q127.873 50.667 127.435 51.167Q127.498 51.417 127.779 51.386Q128.060 51.355 128.373 51.417Q127.935 51.730 127.623 52.167Q127.310 52.605 126.998 53.042Q126.685 53.480 126.279 53.855Q125.873 54.230 125.248 54.292Q122.998 55.167 119.498 54.355Q115.998 53.542 110.560 51.480Q107.873 50.480 106.185 49.667Q104.498 48.855 103.248 48.074Q101.998 47.292 100.935 46.386Q99.873 45.480 98.498 44.230Q98.310 44.292 98.279 44.480Q98.248 44.667 98.060 44.730Q97.748 47.230 97.091 48.792Q96.435 50.355 95.185 51.980Q94.185 51.792 93.841 52.167Q93.498 52.542 92.998 52.855Q92.373 52.980 92.060 52.824Q91.748 52.667 91.498 52.480Q91.248 52.292 90.935 52.105Q90.623 51.917 89.935 51.980Q89.748 51.417 89.560 50.886Q89.373 50.355 88.560 50.417Q88.748 49.855 88.685 49.449Q88.623 49.042 88.498 48.699Q88.373 48.355 88.279 47.980Q88.185 47.605 88.373 47.105M109.248 18.542Q108.435 19.730 107.435 20.699Q106.435 21.667 105.466 22.699Q104.498 23.730 103.748 24.949Q102.998 26.167 102.685 27.855Q105.310 27.542 108.185 26.386Q111.060 25.230 113.623 24.167Q113.310 21.855 111.998 20.449Q110.685 19.042 109.248 18.542 M130.653 17.917L130.653 17.230Q130.590 16.730 130.434 16.324Q130.278 15.917 130.090 15.417Q129.778 14.667 129.528 13.792Q129.278 12.917 129.278 11.730Q129.403 11.105 129.590 10.824Q129.778 10.542 129.965 10.355L130.215 9.230L131.153 9.230Q131.653 9.292 132.184 9.292Q132.715 9.292 133.215 9.292Q135.590 9.292 138.090 9.105Q140.590 8.917 143.215 8.667Q146.090 8.292 149.403 8.105Q149.715 7.417 149.809 7.230Q149.903 7.042 150.028 6.792L150.715 6.417Q152.153 6.355 152.715 6.761Q153.278 7.167 153.590 7.542Q155.215 7.417 156.903 7.199Q158.590 6.980 160.403 6.730Q162.903 6.417 165.465 6.105Q168.028 5.792 170.465 5.792Q171.528 5.792 172.465 5.855Q173.403 5.917 174.278 6.042L175.028 6.605Q175.278 7.042 175.653 7.417Q176.028 7.792 176.528 8.167Q177.465 8.917 178.371 10.042Q179.278 11.167 179.028 13.355L178.715 13.980Q178.465 14.230 178.090 14.480L177.465 15.292L176.778 15.292Q176.153 15.292 175.840 15.386Q175.528 15.480 175.090 15.667Q174.840 15.792 174.528 15.886Q174.215 15.980 173.840 16.105Q173.153 16.042 172.778 16.042Q172.403 16.042 171.903 16.042Q170.028 16.042 167.840 16.292Q165.653 16.542 163.590 16.855Q162.090 17.042 160.715 17.199Q159.340 17.355 158.215 17.480Q157.590 19.105 157.090 20.355Q156.590 21.605 156.028 22.855Q155.465 24.105 154.965 25.386Q154.465 26.667 154.028 28.230Q153.278 29.355 152.778 30.386Q152.278 31.417 151.965 32.730Q151.028 33.792 150.621 35.042Q150.215 36.292 149.903 37.167L149.653 38.105Q149.215 38.542 149.121 38.792Q149.028 39.042 148.778 39.355Q148.590 40.167 148.278 40.917Q148.153 41.230 148.028 41.574Q147.903 41.917 147.965 42.105Q147.840 42.792 147.590 43.167Q147.590 43.542 147.528 43.917Q147.465 44.292 147.403 44.667Q147.278 45.105 147.215 45.449Q147.153 45.792 147.278 46.105Q147.465 46.355 147.653 46.605Q147.840 46.855 147.965 47.230Q148.090 47.355 148.278 47.417Q148.465 47.480 148.590 47.605Q149.090 48.042 149.528 48.105L150.153 48.855Q150.528 51.105 149.465 52.355Q148.340 53.792 145.715 53.792L144.840 53.730Q144.403 53.292 144.340 53.167Q143.778 52.917 143.403 52.761Q143.028 52.605 142.715 52.167Q142.590 52.042 142.403 52.011Q142.215 51.980 142.090 51.855Q141.465 51.667 141.090 51.417L140.403 51.042Q140.465 50.417 140.465 50.167Q139.965 49.480 139.684 48.667Q139.403 47.855 139.215 46.980Q139.028 46.292 138.871 45.730Q138.715 45.167 138.403 44.730Q138.278 40.355 139.215 37.386Q140.153 34.417 141.278 31.605Q141.903 30.105 142.465 28.542Q143.028 26.980 143.465 25.355L144.153 24.667Q144.590 24.292 144.715 24.230Q144.715 23.417 145.028 22.636Q145.340 21.855 145.715 21.042Q145.965 20.542 146.184 20.042Q146.403 19.542 146.465 19.167Q146.028 19.167 145.684 19.199Q145.340 19.230 144.965 19.292Q144.153 19.480 143.403 19.480Q142.840 19.480 142.590 19.417Q142.090 19.667 141.653 19.699Q141.215 19.730 140.778 19.730L140.028 19.730L139.278 19.730Q138.528 19.730 138.090 19.917Q137.215 19.917 136.965 19.917Q136.715 19.917 136.403 19.917L135.653 19.917L134.903 19.917Q134.403 19.917 133.778 19.824Q133.153 19.730 132.465 19.355L132.028 18.855Q131.653 18.167 131.340 18.105" fill="#fafaf7"/>
    <path id="word-amp"  d="M208.335 32.605Q209.273 32.667 209.679 33.011Q210.085 33.355 210.241 33.824Q210.398 34.292 210.335 34.824Q210.273 35.355 210.273 35.917Q209.335 36.542 207.929 36.949Q206.523 37.355 204.835 37.605Q203.148 37.855 201.304 37.949Q199.460 38.042 197.648 38.042Q197.335 39.792 196.898 41.792Q196.460 43.792 195.460 46.542Q194.585 48.480 193.460 49.261Q192.335 50.042 191.116 50.042Q189.898 50.042 188.648 49.449Q187.398 48.855 186.273 48.105Q186.023 46.480 186.210 44.824Q186.398 43.167 186.773 40.730Q186.398 39.980 185.773 39.699Q185.148 39.417 184.429 39.386Q183.710 39.355 183.085 39.480Q182.460 39.605 182.210 39.730Q181.023 39.667 179.741 39.167Q178.460 38.667 177.273 38.011Q176.085 37.355 175.179 36.574Q174.273 35.792 173.835 35.042Q174.148 34.542 173.991 33.605Q173.835 32.667 173.273 32.230Q173.773 32.105 173.991 31.480Q174.210 30.855 174.023 30.542Q175.023 30.292 175.616 29.324Q176.210 28.355 177.023 27.230Q177.835 26.105 179.273 25.074Q180.710 24.042 183.523 23.667Q185.335 24.730 186.429 25.355Q187.523 25.980 188.210 26.292Q188.960 26.667 189.335 26.792Q189.398 26.542 189.741 26.417Q190.085 26.292 190.148 25.980Q190.398 25.167 190.273 24.699Q190.148 24.230 190.523 23.542Q190.835 23.042 191.366 22.261Q191.898 21.480 191.773 20.292Q192.398 19.855 192.929 19.324Q193.460 18.792 194.054 18.324Q194.648 17.855 195.366 17.511Q196.085 17.167 197.148 17.167Q197.710 17.855 197.960 18.480Q198.210 19.105 198.460 19.667Q198.710 20.230 199.116 20.730Q199.523 21.230 200.335 21.667Q200.398 22.230 200.210 23.042Q200.023 23.855 199.898 24.636Q199.773 25.417 199.835 26.074Q199.898 26.730 200.460 26.917Q199.835 28.542 199.523 29.605Q200.585 29.792 201.960 29.824Q203.335 29.855 204.585 30.042Q205.835 30.230 206.866 30.792Q207.898 31.355 208.335 32.605M181.960 32.292Q181.960 32.855 182.898 32.855Q183.148 32.855 183.429 32.824Q183.710 32.792 184.023 32.730Q184.335 32.667 184.648 32.605Q184.335 32.230 184.023 31.980Q183.710 31.730 183.429 31.511Q183.148 31.292 182.898 31.292Q182.648 31.292 182.304 31.730Q181.960 32.167 181.960 32.292"  fill="#f3d111"/>
    <path id="word-erne" d="M220.268 50.355Q219.768 49.855 219.549 49.167Q219.330 48.480 218.518 48.042Q218.393 47.105 218.174 45.886Q217.955 44.667 217.736 43.386Q217.518 42.105 217.424 40.824Q217.330 39.542 217.518 38.480Q217.643 37.917 217.924 37.417Q218.205 36.917 218.486 36.449Q218.768 35.980 218.924 35.480Q219.080 34.980 218.955 34.480Q219.330 34.417 219.424 34.074Q219.518 33.730 220.018 33.855Q220.455 32.480 220.955 31.292Q221.455 30.105 222.018 28.980Q222.580 27.855 223.174 26.699Q223.768 25.542 224.268 24.105Q223.205 23.105 222.736 21.949Q222.268 20.792 222.018 19.605Q221.768 18.417 221.643 17.199Q221.518 15.980 221.143 14.730Q221.893 13.605 222.955 12.886Q224.018 12.167 225.299 11.699Q226.580 11.230 228.080 10.949Q229.580 10.667 231.268 10.292Q234.268 9.355 236.643 8.824Q239.018 8.292 241.268 7.949Q243.518 7.605 245.955 7.324Q248.393 7.042 251.580 6.480Q251.643 6.667 251.799 6.667Q251.955 6.667 252.205 6.667Q252.393 7.105 252.893 7.105Q252.893 6.917 252.861 6.761Q252.830 6.605 252.830 6.480Q252.955 6.480 253.174 6.542Q253.393 6.605 253.549 6.667Q253.705 6.730 253.830 6.636Q253.955 6.542 253.893 6.230Q254.643 7.542 255.830 8.386Q257.018 9.230 258.455 9.855Q258.518 10.417 258.486 10.667Q258.455 10.917 258.393 11.136Q258.330 11.355 258.330 11.636Q258.330 11.917 258.455 12.417Q257.455 14.105 256.174 15.042Q254.893 15.980 253.455 16.480Q252.018 16.980 250.424 17.230Q248.830 17.480 247.174 17.761Q245.518 18.042 243.830 18.542Q242.143 19.042 240.518 20.042Q240.018 19.855 239.611 19.886Q239.205 19.917 238.768 20.042Q238.330 20.167 237.799 20.292Q237.268 20.417 236.518 20.292Q236.018 20.730 235.361 20.917Q234.705 21.105 234.018 21.292Q234.330 21.980 234.299 22.667Q234.268 23.355 234.455 23.855Q237.080 24.105 240.268 23.824Q243.455 23.542 246.518 23.417Q246.580 23.730 246.455 23.855Q246.330 23.980 246.330 24.292Q246.893 24.667 247.393 25.230Q247.893 25.792 248.424 26.324Q248.955 26.855 249.518 27.199Q250.080 27.542 250.830 27.480Q251.143 28.105 251.268 28.792Q251.393 29.480 251.080 30.230Q249.830 31.042 248.643 31.886Q247.455 32.730 246.174 33.417Q244.893 34.105 243.393 34.542Q241.893 34.980 240.143 34.917Q239.830 34.917 239.611 34.917Q239.393 34.917 239.080 34.667Q238.455 34.980 237.424 34.886Q236.393 34.792 235.705 35.105Q234.830 34.792 233.674 34.792Q232.518 34.792 231.643 34.480Q230.518 36.105 229.518 37.886Q228.518 39.667 227.768 41.667Q230.330 42.042 232.018 41.980Q233.705 41.917 235.205 41.730Q236.705 41.542 238.299 41.355Q239.893 41.167 242.205 41.230Q243.768 40.480 245.799 40.199Q247.830 39.917 249.580 39.355Q250.205 39.542 250.643 40.074Q251.080 40.605 251.486 41.136Q251.893 41.667 252.330 42.042Q252.768 42.417 253.455 42.292Q253.768 42.605 253.861 43.042Q253.955 43.480 254.049 43.855Q254.143 44.230 254.330 44.449Q254.518 44.667 255.018 44.605Q253.830 47.042 252.361 48.355Q250.893 49.667 249.049 50.386Q247.205 51.105 244.924 51.449Q242.643 51.792 239.830 52.292Q239.143 52.417 238.674 52.261Q238.205 52.105 237.705 52.105Q235.955 52.417 233.549 52.730Q231.143 53.042 228.705 52.980Q226.268 52.917 224.018 52.355Q221.768 51.792 220.268 50.355 M259.923 47.105Q259.610 47.167 259.360 46.636Q259.110 46.105 258.798 45.605L259.485 45.605Q259.048 44.230 259.266 43.074Q259.485 41.917 259.798 40.824Q260.110 39.730 260.329 38.699Q260.548 37.667 260.110 36.542Q260.423 36.730 260.579 36.386Q260.735 36.042 260.829 35.511Q260.923 34.980 260.891 34.386Q260.860 33.792 260.798 33.417Q261.610 31.480 262.079 29.417Q262.548 27.355 262.923 25.324Q263.298 23.292 263.766 21.386Q264.235 19.480 264.985 17.792Q265.860 17.667 266.829 18.011Q267.798 18.355 268.110 18.855Q270.048 17.355 271.548 15.230Q273.048 13.105 274.579 11.074Q276.110 9.042 278.048 7.480Q279.985 5.917 282.860 5.605Q284.360 6.667 286.235 7.886Q288.110 9.105 289.298 10.917Q289.798 11.230 290.266 11.574Q290.735 11.917 291.235 12.230L291.235 13.167Q292.110 13.980 292.704 15.074Q293.298 16.167 293.766 17.386Q294.235 18.605 294.673 19.855Q295.110 21.105 295.673 22.167Q295.548 22.542 295.579 22.824Q295.610 23.105 295.704 23.386Q295.798 23.667 295.860 24.011Q295.923 24.355 295.923 24.855Q295.673 28.167 293.766 30.199Q291.860 32.230 289.141 33.511Q286.423 34.792 283.360 35.699Q280.298 36.605 277.798 37.667Q277.798 37.917 278.079 37.917Q278.360 37.917 278.235 38.292Q280.110 39.417 281.141 40.105Q282.173 40.792 283.079 41.261Q283.985 41.730 285.079 42.042Q286.173 42.355 288.110 42.792Q290.048 43.230 291.141 43.511Q292.235 43.792 293.110 43.949Q293.985 44.105 294.985 44.230Q295.985 44.355 297.673 44.542Q298.360 45.230 298.798 46.167Q299.235 47.105 299.423 48.042Q299.610 48.980 299.516 49.824Q299.423 50.667 298.985 51.167Q299.048 51.417 299.329 51.386Q299.610 51.355 299.923 51.417Q299.485 51.730 299.173 52.167Q298.860 52.605 298.548 53.042Q298.235 53.480 297.829 53.855Q297.423 54.230 296.798 54.292Q294.548 55.167 291.048 54.355Q287.548 53.542 282.110 51.480Q279.423 50.480 277.735 49.667Q276.048 48.855 274.798 48.074Q273.548 47.292 272.485 46.386Q271.423 45.480 270.048 44.230Q269.860 44.292 269.829 44.480Q269.798 44.667 269.610 44.730Q269.298 47.230 268.641 48.792Q267.985 50.355 266.735 51.980Q265.735 51.792 265.391 52.167Q265.048 52.542 264.548 52.855Q263.923 52.980 263.610 52.824Q263.298 52.667 263.048 52.480Q262.798 52.292 262.485 52.105Q262.173 51.917 261.485 51.980Q261.298 51.417 261.110 50.886Q260.923 50.355 260.110 50.417Q260.298 49.855 260.235 49.449Q260.173 49.042 260.048 48.699Q259.923 48.355 259.829 47.980Q259.735 47.605 259.923 47.105M280.798 18.542Q279.985 19.730 278.985 20.699Q277.985 21.667 277.016 22.699Q276.048 23.730 275.298 24.949Q274.548 26.167 274.235 27.855Q276.860 27.542 279.735 26.386Q282.610 25.230 285.173 24.167Q284.860 21.855 283.548 20.449Q282.235 19.042 280.798 18.542 M312.140 46.605Q311.515 47.105 311.390 47.886Q311.265 48.667 311.077 49.417Q310.890 50.167 310.421 50.699Q309.952 51.230 308.765 51.167Q308.515 51.480 308.671 51.542Q308.827 51.605 308.952 52.105Q308.077 51.980 307.702 52.230Q307.327 52.480 306.765 52.605Q305.327 52.167 304.359 51.011Q303.390 49.855 302.671 48.480Q301.952 47.105 301.421 45.667Q300.890 44.230 300.327 43.167Q300.327 42.917 300.546 42.949Q300.765 42.980 300.952 42.980Q300.640 42.355 300.484 41.574Q300.327 40.792 299.890 40.292Q301.702 36.417 303.765 32.199Q305.827 27.980 307.921 23.636Q310.015 19.292 312.109 14.886Q314.202 10.480 316.140 6.230Q317.890 6.855 319.546 7.699Q321.202 8.542 322.577 9.667Q323.952 10.792 324.921 12.261Q325.890 13.730 326.202 15.605Q326.077 15.980 325.890 15.855Q325.702 15.730 325.577 15.980Q325.890 16.355 325.921 16.511Q325.952 16.667 325.890 16.824Q325.827 16.980 325.827 17.230Q325.827 17.480 326.140 17.917Q325.827 17.855 325.702 18.011Q325.577 18.167 325.265 18.042Q325.577 18.917 325.452 19.417Q325.327 19.917 325.077 20.324Q324.827 20.730 324.671 21.199Q324.515 21.667 324.765 22.480Q324.515 22.480 324.421 22.574Q324.327 22.667 324.265 22.792Q324.202 22.917 324.109 23.011Q324.015 23.105 323.765 23.042Q323.952 24.667 323.890 26.324Q323.827 27.980 323.765 29.699Q323.702 31.417 323.765 33.230Q323.827 35.042 324.265 36.980Q326.952 35.417 328.609 32.917Q330.265 30.417 331.234 27.355Q332.202 24.292 332.734 20.792Q333.265 17.292 333.827 13.667Q334.515 12.980 334.921 11.980Q335.327 10.980 335.609 9.917Q335.890 8.855 336.171 7.761Q336.452 6.667 336.952 5.792Q338.077 5.917 338.859 6.449Q339.640 6.980 340.327 7.636Q341.015 8.292 341.765 8.855Q342.515 9.417 343.640 9.605Q344.515 10.855 345.265 12.011Q346.015 13.167 346.265 14.605Q345.890 15.230 345.702 15.980Q345.515 16.730 345.296 17.480Q345.077 18.230 344.702 18.855Q344.327 19.480 343.640 19.917Q343.452 21.792 343.077 23.417Q342.702 25.042 342.390 26.605Q342.077 28.167 341.827 29.855Q341.577 31.542 341.640 33.542Q341.077 35.355 340.390 37.261Q339.702 39.167 339.390 40.792Q338.202 41.730 337.515 43.105Q336.827 44.480 336.077 45.855Q335.765 46.105 335.702 45.949Q335.640 45.792 335.140 45.730Q335.202 46.292 334.921 46.449Q334.640 46.605 334.952 47.355Q333.890 47.855 333.077 48.667Q332.265 49.480 331.296 50.167Q330.327 50.855 329.046 51.074Q327.765 51.292 325.702 50.542Q322.640 48.292 320.202 45.355Q317.765 42.417 316.327 38.417Q315.702 38.605 315.390 39.230Q315.077 39.855 314.827 40.542Q314.577 41.230 314.327 41.792Q314.077 42.355 313.577 42.355Q313.452 42.917 313.109 43.386Q312.765 43.855 312.452 44.324Q312.140 44.792 311.984 45.355Q311.827 45.917 312.140 46.605 M349.420 50.355Q348.920 49.855 348.701 49.167Q348.482 48.480 347.670 48.042Q347.545 47.105 347.326 45.886Q347.107 44.667 346.889 43.386Q346.670 42.105 346.576 40.824Q346.482 39.542 346.670 38.480Q346.795 37.917 347.076 37.417Q347.357 36.917 347.639 36.449Q347.920 35.980 348.076 35.480Q348.232 34.980 348.107 34.480Q348.482 34.417 348.576 34.074Q348.670 33.730 349.170 33.855Q349.607 32.480 350.107 31.292Q350.607 30.105 351.170 28.980Q351.732 27.855 352.326 26.699Q352.920 25.542 353.420 24.105Q352.357 23.105 351.889 21.949Q351.420 20.792 351.170 19.605Q350.920 18.417 350.795 17.199Q350.670 15.980 350.295 14.730Q351.045 13.605 352.107 12.886Q353.170 12.167 354.451 11.699Q355.732 11.230 357.232 10.949Q358.732 10.667 360.420 10.292Q363.420 9.355 365.795 8.824Q368.170 8.292 370.420 7.949Q372.670 7.605 375.107 7.324Q377.545 7.042 380.732 6.480Q380.795 6.667 380.951 6.667Q381.107 6.667 381.357 6.667Q381.545 7.105 382.045 7.105Q382.045 6.917 382.014 6.761Q381.982 6.605 381.982 6.480Q382.107 6.480 382.326 6.542Q382.545 6.605 382.701 6.667Q382.857 6.730 382.982 6.636Q383.107 6.542 383.045 6.230Q383.795 7.542 384.982 8.386Q386.170 9.230 387.607 9.855Q387.670 10.417 387.639 10.667Q387.607 10.917 387.545 11.136Q387.482 11.355 387.482 11.636Q387.482 11.917 387.607 12.417Q386.607 14.105 385.326 15.042Q384.045 15.980 382.607 16.480Q381.170 16.980 379.576 17.230Q377.982 17.480 376.326 17.761Q374.670 18.042 372.982 18.542Q371.295 19.042 369.670 20.042Q369.170 19.855 368.764 19.886Q368.357 19.917 367.920 20.042Q367.482 20.167 366.951 20.292Q366.420 20.417 365.670 20.292Q365.170 20.730 364.514 20.917Q363.857 21.105 363.170 21.292Q363.482 21.980 363.451 22.667Q363.420 23.355 363.607 23.855Q366.232 24.105 369.420 23.824Q372.607 23.542 375.670 23.417Q375.732 23.730 375.607 23.855Q375.482 23.980 375.482 24.292Q376.045 24.667 376.545 25.230Q377.045 25.792 377.576 26.324Q378.107 26.855 378.670 27.199Q379.232 27.542 379.982 27.480Q380.295 28.105 380.420 28.792Q380.545 29.480 380.232 30.230Q378.982 31.042 377.795 31.886Q376.607 32.730 375.326 33.417Q374.045 34.105 372.545 34.542Q371.045 34.980 369.295 34.917Q368.982 34.917 368.764 34.917Q368.545 34.917 368.232 34.667Q367.607 34.980 366.576 34.886Q365.545 34.792 364.857 35.105Q363.982 34.792 362.826 34.792Q361.670 34.792 360.795 34.480Q359.670 36.105 358.670 37.886Q357.670 39.667 356.920 41.667Q359.482 42.042 361.170 41.980Q362.857 41.917 364.357 41.730Q365.857 41.542 367.451 41.355Q369.045 41.167 371.357 41.230Q372.920 40.480 374.951 40.199Q376.982 39.917 378.732 39.355Q379.357 39.542 379.795 40.074Q380.232 40.605 380.639 41.136Q381.045 41.667 381.482 42.042Q381.920 42.417 382.607 42.292Q382.920 42.605 383.014 43.042Q383.107 43.480 383.201 43.855Q383.295 44.230 383.482 44.449Q383.670 44.667 384.170 44.605Q382.982 47.042 381.514 48.355Q380.045 49.667 378.201 50.386Q376.357 51.105 374.076 51.449Q371.795 51.792 368.982 52.292Q368.295 52.417 367.826 52.261Q367.357 52.105 366.857 52.105Q365.107 52.417 362.701 52.730Q360.295 53.042 357.857 52.980Q355.420 52.917 353.170 52.355Q350.920 51.792 349.420 50.355" fill="#fafaf7"/>
  </g>
</svg>
