<?xml version="1.0" encoding="UTF-8" standalone="no"?>
<svg xmlns="http://www.w3.org/2000/svg" viewBox="0 0 399 95"
     width="399" height="95">
  <title>bert &amp; erne — full brush lockup (V5)</title>
  <desc>
    V5 dark-knockout brush lockup from round 10. Cream BERT &amp; ERNE
    wordmark with court-yellow ampersand, Anton tagline beneath.
    Outlined paths — no font dependency. Transparent background so the
    same asset works on any dark surface.
    Source fonts:
      Permanent Marker (Google Fonts) — wordmark
      Anton (Google Fonts) — tagline
    Colors:
      cream  #fafaf7  — wordmark + tagline
      yellow #f3d111  — ampersand
  </desc>
  <g id="brush-lockup">
    <path id="word-bert" d="M13.188 26.292Q10.563 25.230 8.844 23.292Q7.125 21.355 6.063 18.730Q6.688 17.042 8.063 15.886Q9.438 14.730 11.156 13.917Q12.875 13.105 14.813 12.605Q16.750 12.105 18.563 11.730Q18.938 11.855 18.938 11.730Q18.938 11.605 19.250 11.855Q21.500 11.167 24.438 10.511Q27.375 9.855 30.688 10.042Q31.125 9.792 31.750 9.761Q32.375 9.730 33.063 9.730Q33.750 9.730 34.375 9.699Q35 9.667 35.438 9.480Q35.813 9.917 36.563 10.011Q37.313 10.105 38.125 10.667Q38.375 10.730 38.125 10.449Q37.875 10.167 38.188 10.042Q39 10.042 39.625 10.417Q40.250 10.792 40.781 11.261Q41.313 11.730 41.781 12.105Q42.250 12.480 42.813 12.480Q43.375 13.167 44.156 13.761Q44.938 14.355 45.656 14.980Q46.375 15.605 46.844 16.355Q47.313 17.105 47.313 18.042Q47.250 18.417 47.563 18.480Q47.875 18.542 48 18.855Q48.063 21.167 47.281 22.855Q46.500 24.542 45.313 25.949Q44.125 27.355 42.781 28.605Q41.438 29.855 40.313 31.292Q41.063 32.230 42.031 33.011Q43 33.792 44 34.542Q45 35.292 45.906 36.136Q46.813 36.980 47.438 38.042Q47.625 38.417 48.250 38.542Q48.438 39.292 48.781 40.074Q49.125 40.855 49.438 41.574Q49.750 42.292 49.813 42.855Q49.875 43.417 49.500 43.792Q49.938 44.042 50 44.574Q50.063 45.105 50 45.417Q48.625 47.105 48.125 47.792Q47.625 48.480 47.375 48.792Q47.125 49.105 46.875 49.355Q46.625 49.605 45.750 50.355Q42.438 52.355 38.844 53.949Q35.250 55.542 31.375 56.105Q31.063 56.542 30.469 56.824Q29.875 57.105 29.125 57.292Q28.375 57.480 27.531 57.605Q26.688 57.730 26 57.855Q25.688 57.730 25.656 57.449Q25.625 57.167 25.313 57.042Q25.250 57.792 24.656 57.824Q24.063 57.855 23.188 57.542Q22.313 57.230 21.375 56.667Q20.438 56.105 19.750 55.605Q19.438 56.167 18.969 56.792Q18.500 57.417 18 57.667Q17.125 57.542 16.719 57.480Q16.313 57.417 15.938 57.792Q15.438 57.542 15.188 57.261Q14.938 56.980 14.688 56.699Q14.438 56.417 14.125 56.199Q13.813 55.980 13.188 55.792Q13.313 55.480 13 54.824Q12.688 54.167 12.125 54.042Q12.438 53.542 11.875 52.761Q11.313 51.980 11 50.980Q11.063 50.542 11.094 50.074Q11.125 49.605 11.219 49.199Q11.313 48.792 11.500 48.480Q11.688 48.167 12.125 48.042Q12.063 47.230 11.625 46.480Q12.188 46.042 12.375 45.386Q12.563 44.730 12.719 44.042Q12.875 43.355 13.125 42.699Q13.375 42.042 13.938 41.605Q13.813 41.417 13.688 41.292Q13.563 41.167 13.563 40.855Q14.500 39.292 14.875 38.199Q15.250 37.105 15.469 36.074Q15.688 35.042 15.938 33.855Q16.188 32.667 16.938 30.855Q16.875 29.730 17.188 28.855Q17.500 27.980 17.844 27.136Q18.188 26.292 18.375 25.355Q18.563 24.417 18.313 23.167Q17.250 23.292 16.781 23.917Q16.313 24.542 16.188 25.605Q15.625 26.105 14.750 26.074Q13.875 26.042 13.188 26.292M40.688 38.355Q38.313 37.042 36.344 36.792Q34.375 36.542 32.594 36.824Q30.813 37.105 29.188 37.605Q27.563 38.105 25.938 38.355Q25.125 40.480 24.250 43.042Q23.375 45.605 22.563 48.042Q24.813 47.730 26.688 47.105Q28.563 46.480 30.313 45.699Q32.063 44.917 33.750 44.136Q35.438 43.355 37.250 42.667Q37.438 41.917 38.063 41.480Q38.688 41.042 39.313 40.636Q39.938 40.230 40.375 39.730Q40.813 39.230 40.688 38.355M36.313 18.792Q32.438 18.667 28.688 19.480Q24.938 20.292 22.375 21.855Q23.625 22.917 24.969 23.730Q26.313 24.542 27 25.917Q30 24.730 32.250 22.886Q34.500 21.042 36.313 18.792 M56.718 54.355Q56.218 53.855 55.999 53.167Q55.780 52.480 54.968 52.042Q54.843 51.105 54.624 49.886Q54.405 48.667 54.186 47.386Q53.968 46.105 53.874 44.824Q53.780 43.542 53.968 42.480Q54.093 41.917 54.374 41.417Q54.655 40.917 54.936 40.449Q55.218 39.980 55.374 39.480Q55.530 38.980 55.405 38.480Q55.780 38.417 55.874 38.074Q55.968 37.730 56.468 37.855Q56.905 36.480 57.405 35.292Q57.905 34.105 58.468 32.980Q59.030 31.855 59.624 30.699Q60.218 29.542 60.718 28.105Q59.655 27.105 59.186 25.949Q58.718 24.792 58.468 23.605Q58.218 22.417 58.093 21.199Q57.968 19.980 57.593 18.730Q58.343 17.605 59.405 16.886Q60.468 16.167 61.749 15.699Q63.030 15.230 64.530 14.949Q66.030 14.667 67.718 14.292Q70.718 13.355 73.093 12.824Q75.468 12.292 77.718 11.949Q79.968 11.605 82.405 11.324Q84.843 11.042 88.030 10.480Q88.093 10.667 88.249 10.667Q88.405 10.667 88.655 10.667Q88.843 11.105 89.343 11.105Q89.343 10.917 89.311 10.761Q89.280 10.605 89.280 10.480Q89.405 10.480 89.624 10.542Q89.843 10.605 89.999 10.667Q90.155 10.730 90.280 10.636Q90.405 10.542 90.343 10.230Q91.093 11.542 92.280 12.386Q93.468 13.230 94.905 13.855Q94.968 14.417 94.936 14.667Q94.905 14.917 94.843 15.136Q94.780 15.355 94.780 15.636Q94.780 15.917 94.905 16.417Q93.905 18.105 92.624 19.042Q91.343 19.980 89.905 20.480Q88.468 20.980 86.874 21.230Q85.280 21.480 83.624 21.761Q81.968 22.042 80.280 22.542Q78.593 23.042 76.968 24.042Q76.468 23.855 76.061 23.886Q75.655 23.917 75.218 24.042Q74.780 24.167 74.249 24.292Q73.718 24.417 72.968 24.292Q72.468 24.730 71.811 24.917Q71.155 25.105 70.468 25.292Q70.780 25.980 70.749 26.667Q70.718 27.355 70.905 27.855Q73.530 28.105 76.718 27.824Q79.905 27.542 82.968 27.417Q83.030 27.730 82.905 27.855Q82.780 27.980 82.780 28.292Q83.343 28.667 83.843 29.230Q84.343 29.792 84.874 30.324Q85.405 30.855 85.968 31.199Q86.530 31.542 87.280 31.480Q87.593 32.105 87.718 32.792Q87.843 33.480 87.530 34.230Q86.280 35.042 85.093 35.886Q83.905 36.730 82.624 37.417Q81.343 38.105 79.843 38.542Q78.343 38.980 76.593 38.917Q76.280 38.917 76.061 38.917Q75.843 38.917 75.530 38.667Q74.905 38.980 73.874 38.886Q72.843 38.792 72.155 39.105Q71.280 38.792 70.124 38.792Q68.968 38.792 68.093 38.480Q66.968 40.105 65.968 41.886Q64.968 43.667 64.218 45.667Q66.780 46.042 68.468 45.980Q70.155 45.917 71.655 45.730Q73.155 45.542 74.749 45.355Q76.343 45.167 78.655 45.230Q80.218 44.480 82.249 44.199Q84.280 43.917 86.030 43.355Q86.655 43.542 87.093 44.074Q87.530 44.605 87.936 45.136Q88.343 45.667 88.780 46.042Q89.218 46.417 89.905 46.292Q90.218 46.605 90.311 47.042Q90.405 47.480 90.499 47.855Q90.593 48.230 90.780 48.449Q90.968 48.667 91.468 48.605Q90.280 51.042 88.811 52.355Q87.343 53.667 85.499 54.386Q83.655 55.105 81.374 55.449Q79.093 55.792 76.280 56.292Q75.593 56.417 75.124 56.261Q74.655 56.105 74.155 56.105Q72.405 56.417 69.999 56.730Q67.593 57.042 65.155 56.980Q62.718 56.917 60.468 56.355Q58.218 55.792 56.718 54.355 M96.373 51.105Q96.060 51.167 95.810 50.636Q95.560 50.105 95.248 49.605L95.935 49.605Q95.498 48.230 95.716 47.074Q95.935 45.917 96.248 44.824Q96.560 43.730 96.779 42.699Q96.998 41.667 96.560 40.542Q96.873 40.730 97.029 40.386Q97.185 40.042 97.279 39.511Q97.373 38.980 97.341 38.386Q97.310 37.792 97.248 37.417Q98.060 35.480 98.529 33.417Q98.998 31.355 99.373 29.324Q99.748 27.292 100.216 25.386Q100.685 23.480 101.435 21.792Q102.310 21.667 103.279 22.011Q104.248 22.355 104.560 22.855Q106.498 21.355 107.998 19.230Q109.498 17.105 111.029 15.074Q112.560 13.042 114.498 11.480Q116.435 9.917 119.310 9.605Q120.810 10.667 122.685 11.886Q124.560 13.105 125.748 14.917Q126.248 15.230 126.716 15.574Q127.185 15.917 127.685 16.230L127.685 17.167Q128.560 17.980 129.154 19.074Q129.748 20.167 130.216 21.386Q130.685 22.605 131.123 23.855Q131.560 25.105 132.123 26.167Q131.998 26.542 132.029 26.824Q132.060 27.105 132.154 27.386Q132.248 27.667 132.310 28.011Q132.373 28.355 132.373 28.855Q132.123 32.167 130.216 34.199Q128.310 36.230 125.591 37.511Q122.873 38.792 119.810 39.699Q116.748 40.605 114.248 41.667Q114.248 41.917 114.529 41.917Q114.810 41.917 114.685 42.292Q116.560 43.417 117.591 44.105Q118.623 44.792 119.529 45.261Q120.435 45.730 121.529 46.042Q122.623 46.355 124.560 46.792Q126.498 47.230 127.591 47.511Q128.685 47.792 129.560 47.949Q130.435 48.105 131.435 48.230Q132.435 48.355 134.123 48.542Q134.810 49.230 135.248 50.167Q135.685 51.105 135.873 52.042Q136.060 52.980 135.966 53.824Q135.873 54.667 135.435 55.167Q135.498 55.417 135.779 55.386Q136.060 55.355 136.373 55.417Q135.935 55.730 135.623 56.167Q135.310 56.605 134.998 57.042Q134.685 57.480 134.279 57.855Q133.873 58.230 133.248 58.292Q130.998 59.167 127.498 58.355Q123.998 57.542 118.560 55.480Q115.873 54.480 114.185 53.667Q112.498 52.855 111.248 52.074Q109.998 51.292 108.935 50.386Q107.873 49.480 106.498 48.230Q106.310 48.292 106.279 48.480Q106.248 48.667 106.060 48.730Q105.748 51.230 105.091 52.792Q104.435 54.355 103.185 55.980Q102.185 55.792 101.841 56.167Q101.498 56.542 100.998 56.855Q100.373 56.980 100.060 56.824Q99.748 56.667 99.498 56.480Q99.248 56.292 98.935 56.105Q98.623 55.917 97.935 55.980Q97.748 55.417 97.560 54.886Q97.373 54.355 96.560 54.417Q96.748 53.855 96.685 53.449Q96.623 53.042 96.498 52.699Q96.373 52.355 96.279 51.980Q96.185 51.605 96.373 51.105M117.248 22.542Q116.435 23.730 115.435 24.699Q114.435 25.667 113.466 26.699Q112.498 27.730 111.748 28.949Q110.998 30.167 110.685 31.855Q113.310 31.542 116.185 30.386Q119.060 29.230 121.623 28.167Q121.310 25.855 119.998 24.449Q118.685 23.042 117.248 22.542 M138.653 21.917L138.653 21.230Q138.590 20.730 138.434 20.324Q138.278 19.917 138.090 19.417Q137.778 18.667 137.528 17.792Q137.278 16.917 137.278 15.730Q137.403 15.105 137.590 14.824Q137.778 14.542 137.965 14.355L138.215 13.230L139.153 13.230Q139.653 13.292 140.184 13.292Q140.715 13.292 141.215 13.292Q143.590 13.292 146.090 13.105Q148.590 12.917 151.215 12.667Q154.090 12.292 157.403 12.105Q157.715 11.417 157.809 11.230Q157.903 11.042 158.028 10.792L158.715 10.417Q160.153 10.355 160.715 10.761Q161.278 11.167 161.590 11.542Q163.215 11.417 164.903 11.199Q166.590 10.980 168.403 10.730Q170.903 10.417 173.465 10.105Q176.028 9.792 178.465 9.792Q179.528 9.792 180.465 9.855Q181.403 9.917 182.278 10.042L183.028 10.605Q183.278 11.042 183.653 11.417Q184.028 11.792 184.528 12.167Q185.465 12.917 186.371 14.042Q187.278 15.167 187.028 17.355L186.715 17.980Q186.465 18.230 186.090 18.480L185.465 19.292L184.778 19.292Q184.153 19.292 183.840 19.386Q183.528 19.480 183.090 19.667Q182.840 19.792 182.528 19.886Q182.215 19.980 181.840 20.105Q181.153 20.042 180.778 20.042Q180.403 20.042 179.903 20.042Q178.028 20.042 175.840 20.292Q173.653 20.542 171.590 20.855Q170.090 21.042 168.715 21.199Q167.340 21.355 166.215 21.480Q165.590 23.105 165.090 24.355Q164.590 25.605 164.028 26.855Q163.465 28.105 162.965 29.386Q162.465 30.667 162.028 32.230Q161.278 33.355 160.778 34.386Q160.278 35.417 159.965 36.730Q159.028 37.792 158.621 39.042Q158.215 40.292 157.903 41.167L157.653 42.105Q157.215 42.542 157.121 42.792Q157.028 43.042 156.778 43.355Q156.590 44.167 156.278 44.917Q156.153 45.230 156.028 45.574Q155.903 45.917 155.965 46.105Q155.840 46.792 155.590 47.167Q155.590 47.542 155.528 47.917Q155.465 48.292 155.403 48.667Q155.278 49.105 155.215 49.449Q155.153 49.792 155.278 50.105Q155.465 50.355 155.653 50.605Q155.840 50.855 155.965 51.230Q156.090 51.355 156.278 51.417Q156.465 51.480 156.590 51.605Q157.090 52.042 157.528 52.105L158.153 52.855Q158.528 55.105 157.465 56.355Q156.340 57.792 153.715 57.792L152.840 57.730Q152.403 57.292 152.340 57.167Q151.778 56.917 151.403 56.761Q151.028 56.605 150.715 56.167Q150.590 56.042 150.403 56.011Q150.215 55.980 150.090 55.855Q149.465 55.667 149.090 55.417L148.403 55.042Q148.465 54.417 148.465 54.167Q147.965 53.480 147.684 52.667Q147.403 51.855 147.215 50.980Q147.028 50.292 146.871 49.730Q146.715 49.167 146.403 48.730Q146.278 44.355 147.215 41.386Q148.153 38.417 149.278 35.605Q149.903 34.105 150.465 32.542Q151.028 30.980 151.465 29.355L152.153 28.667Q152.590 28.292 152.715 28.230Q152.715 27.417 153.028 26.636Q153.340 25.855 153.715 25.042Q153.965 24.542 154.184 24.042Q154.403 23.542 154.465 23.167Q154.028 23.167 153.684 23.199Q153.340 23.230 152.965 23.292Q152.153 23.480 151.403 23.480Q150.840 23.480 150.590 23.417Q150.090 23.667 149.653 23.699Q149.215 23.730 148.778 23.730L148.028 23.730L147.278 23.730Q146.528 23.730 146.090 23.917Q145.215 23.917 144.965 23.917Q144.715 23.917 144.403 23.917L143.653 23.917L142.903 23.917Q142.403 23.917 141.778 23.824Q141.153 23.730 140.465 23.355L140.028 22.855Q139.653 22.167 139.340 22.105" fill="#fafaf7"/>
    <path id="word-amp"  d="M216.335 36.605Q217.273 36.667 217.679 37.011Q218.085 37.355 218.241 37.824Q218.398 38.292 218.335 38.824Q218.273 39.355 218.273 39.917Q217.335 40.542 215.929 40.949Q214.523 41.355 212.835 41.605Q211.148 41.855 209.304 41.949Q207.460 42.042 205.648 42.042Q205.335 43.792 204.898 45.792Q204.460 47.792 203.460 50.542Q202.585 52.480 201.460 53.261Q200.335 54.042 199.116 54.042Q197.898 54.042 196.648 53.449Q195.398 52.855 194.273 52.105Q194.023 50.480 194.210 48.824Q194.398 47.167 194.773 44.730Q194.398 43.980 193.773 43.699Q193.148 43.417 192.429 43.386Q191.710 43.355 191.085 43.480Q190.460 43.605 190.210 43.730Q189.023 43.667 187.741 43.167Q186.460 42.667 185.273 42.011Q184.085 41.355 183.179 40.574Q182.273 39.792 181.835 39.042Q182.148 38.542 181.991 37.605Q181.835 36.667 181.273 36.230Q181.773 36.105 181.991 35.480Q182.210 34.855 182.023 34.542Q183.023 34.292 183.616 33.324Q184.210 32.355 185.023 31.230Q185.835 30.105 187.273 29.074Q188.710 28.042 191.523 27.667Q193.335 28.730 194.429 29.355Q195.523 29.980 196.210 30.292Q196.960 30.667 197.335 30.792Q197.398 30.542 197.741 30.417Q198.085 30.292 198.148 29.980Q198.398 29.167 198.273 28.699Q198.148 28.230 198.523 27.542Q198.835 27.042 199.366 26.261Q199.898 25.480 199.773 24.292Q200.398 23.855 200.929 23.324Q201.460 22.792 202.054 22.324Q202.648 21.855 203.366 21.511Q204.085 21.167 205.148 21.167Q205.710 21.855 205.960 22.480Q206.210 23.105 206.460 23.667Q206.710 24.230 207.116 24.730Q207.523 25.230 208.335 25.667Q208.398 26.230 208.210 27.042Q208.023 27.855 207.898 28.636Q207.773 29.417 207.835 30.074Q207.898 30.730 208.460 30.917Q207.835 32.542 207.523 33.605Q208.585 33.792 209.960 33.824Q211.335 33.855 212.585 34.042Q213.835 34.230 214.866 34.792Q215.898 35.355 216.335 36.605M189.960 36.292Q189.960 36.855 190.898 36.855Q191.148 36.855 191.429 36.824Q191.710 36.792 192.023 36.730Q192.335 36.667 192.648 36.605Q192.335 36.230 192.023 35.980Q191.710 35.730 191.429 35.511Q191.148 35.292 190.898 35.292Q190.648 35.292 190.304 35.730Q189.960 36.167 189.960 36.292"  fill="#f3d111"/>
    <path id="word-erne" d="M228.268 54.355Q227.768 53.855 227.549 53.167Q227.330 52.480 226.518 52.042Q226.393 51.105 226.174 49.886Q225.955 48.667 225.736 47.386Q225.518 46.105 225.424 44.824Q225.330 43.542 225.518 42.480Q225.643 41.917 225.924 41.417Q226.205 40.917 226.486 40.449Q226.768 39.980 226.924 39.480Q227.080 38.980 226.955 38.480Q227.330 38.417 227.424 38.074Q227.518 37.730 228.018 37.855Q228.455 36.480 228.955 35.292Q229.455 34.105 230.018 32.980Q230.580 31.855 231.174 30.699Q231.768 29.542 232.268 28.105Q231.205 27.105 230.736 25.949Q230.268 24.792 230.018 23.605Q229.768 22.417 229.643 21.199Q229.518 19.980 229.143 18.730Q229.893 17.605 230.955 16.886Q232.018 16.167 233.299 15.699Q234.580 15.230 236.080 14.949Q237.580 14.667 239.268 14.292Q242.268 13.355 244.643 12.824Q247.018 12.292 249.268 11.949Q251.518 11.605 253.955 11.324Q256.393 11.042 259.580 10.480Q259.643 10.667 259.799 10.667Q259.955 10.667 260.205 10.667Q260.393 11.105 260.893 11.105Q260.893 10.917 260.861 10.761Q260.830 10.605 260.830 10.480Q260.955 10.480 261.174 10.542Q261.393 10.605 261.549 10.667Q261.705 10.730 261.830 10.636Q261.955 10.542 261.893 10.230Q262.643 11.542 263.830 12.386Q265.018 13.230 266.455 13.855Q266.518 14.417 266.486 14.667Q266.455 14.917 266.393 15.136Q266.330 15.355 266.330 15.636Q266.330 15.917 266.455 16.417Q265.455 18.105 264.174 19.042Q262.893 19.980 261.455 20.480Q260.018 20.980 258.424 21.230Q256.830 21.480 255.174 21.761Q253.518 22.042 251.830 22.542Q250.143 23.042 248.518 24.042Q248.018 23.855 247.611 23.886Q247.205 23.917 246.768 24.042Q246.330 24.167 245.799 24.292Q245.268 24.417 244.518 24.292Q244.018 24.730 243.361 24.917Q242.705 25.105 242.018 25.292Q242.330 25.980 242.299 26.667Q242.268 27.355 242.455 27.855Q245.080 28.105 248.268 27.824Q251.455 27.542 254.518 27.417Q254.580 27.730 254.455 27.855Q254.330 27.980 254.330 28.292Q254.893 28.667 255.393 29.230Q255.893 29.792 256.424 30.324Q256.955 30.855 257.518 31.199Q258.080 31.542 258.830 31.480Q259.143 32.105 259.268 32.792Q259.393 33.480 259.080 34.230Q257.830 35.042 256.643 35.886Q255.455 36.730 254.174 37.417Q252.893 38.105 251.393 38.542Q249.893 38.980 248.143 38.917Q247.830 38.917 247.611 38.917Q247.393 38.917 247.080 38.667Q246.455 38.980 245.424 38.886Q244.393 38.792 243.705 39.105Q242.830 38.792 241.674 38.792Q240.518 38.792 239.643 38.480Q238.518 40.105 237.518 41.886Q236.518 43.667 235.768 45.667Q238.330 46.042 240.018 45.980Q241.705 45.917 243.205 45.730Q244.705 45.542 246.299 45.355Q247.893 45.167 250.205 45.230Q251.768 44.480 253.799 44.199Q255.830 43.917 257.580 43.355Q258.205 43.542 258.643 44.074Q259.080 44.605 259.486 45.136Q259.893 45.667 260.330 46.042Q260.768 46.417 261.455 46.292Q261.768 46.605 261.861 47.042Q261.955 47.480 262.049 47.855Q262.143 48.230 262.330 48.449Q262.518 48.667 263.018 48.605Q261.830 51.042 260.361 52.355Q258.893 53.667 257.049 54.386Q255.205 55.105 252.924 55.449Q250.643 55.792 247.830 56.292Q247.143 56.417 246.674 56.261Q246.205 56.105 245.705 56.105Q243.955 56.417 241.549 56.730Q239.143 57.042 236.705 56.980Q234.268 56.917 232.018 56.355Q229.768 55.792 228.268 54.355 M267.923 51.105Q267.610 51.167 267.360 50.636Q267.110 50.105 266.798 49.605L267.485 49.605Q267.048 48.230 267.266 47.074Q267.485 45.917 267.798 44.824Q268.110 43.730 268.329 42.699Q268.548 41.667 268.110 40.542Q268.423 40.730 268.579 40.386Q268.735 40.042 268.829 39.511Q268.923 38.980 268.891 38.386Q268.860 37.792 268.798 37.417Q269.610 35.480 270.079 33.417Q270.548 31.355 270.923 29.324Q271.298 27.292 271.766 25.386Q272.235 23.480 272.985 21.792Q273.860 21.667 274.829 22.011Q275.798 22.355 276.110 22.855Q278.048 21.355 279.548 19.230Q281.048 17.105 282.579 15.074Q284.110 13.042 286.048 11.480Q287.985 9.917 290.860 9.605Q292.360 10.667 294.235 11.886Q296.110 13.105 297.298 14.917Q297.798 15.230 298.266 15.574Q298.735 15.917 299.235 16.230L299.235 17.167Q300.110 17.980 300.704 19.074Q301.298 20.167 301.766 21.386Q302.235 22.605 302.673 23.855Q303.110 25.105 303.673 26.167Q303.548 26.542 303.579 26.824Q303.610 27.105 303.704 27.386Q303.798 27.667 303.860 28.011Q303.923 28.355 303.923 28.855Q303.673 32.167 301.766 34.199Q299.860 36.230 297.141 37.511Q294.423 38.792 291.360 39.699Q288.298 40.605 285.798 41.667Q285.798 41.917 286.079 41.917Q286.360 41.917 286.235 42.292Q288.110 43.417 289.141 44.105Q290.173 44.792 291.079 45.261Q291.985 45.730 293.079 46.042Q294.173 46.355 296.110 46.792Q298.048 47.230 299.141 47.511Q300.235 47.792 301.110 47.949Q301.985 48.105 302.985 48.230Q303.985 48.355 305.673 48.542Q306.360 49.230 306.798 50.167Q307.235 51.105 307.423 52.042Q307.610 52.980 307.516 53.824Q307.423 54.667 306.985 55.167Q307.048 55.417 307.329 55.386Q307.610 55.355 307.923 55.417Q307.485 55.730 307.173 56.167Q306.860 56.605 306.548 57.042Q306.235 57.480 305.829 57.855Q305.423 58.230 304.798 58.292Q302.548 59.167 299.048 58.355Q295.548 57.542 290.110 55.480Q287.423 54.480 285.735 53.667Q284.048 52.855 282.798 52.074Q281.548 51.292 280.485 50.386Q279.423 49.480 278.048 48.230Q277.860 48.292 277.829 48.480Q277.798 48.667 277.610 48.730Q277.298 51.230 276.641 52.792Q275.985 54.355 274.735 55.980Q273.735 55.792 273.391 56.167Q273.048 56.542 272.548 56.855Q271.923 56.980 271.610 56.824Q271.298 56.667 271.048 56.480Q270.798 56.292 270.485 56.105Q270.173 55.917 269.485 55.980Q269.298 55.417 269.110 54.886Q268.923 54.355 268.110 54.417Q268.298 53.855 268.235 53.449Q268.173 53.042 268.048 52.699Q267.923 52.355 267.829 51.980Q267.735 51.605 267.923 51.105M288.798 22.542Q287.985 23.730 286.985 24.699Q285.985 25.667 285.016 26.699Q284.048 27.730 283.298 28.949Q282.548 30.167 282.235 31.855Q284.860 31.542 287.735 30.386Q290.610 29.230 293.173 28.167Q292.860 25.855 291.548 24.449Q290.235 23.042 288.798 22.542 M320.140 50.605Q319.515 51.105 319.390 51.886Q319.265 52.667 319.077 53.417Q318.890 54.167 318.421 54.699Q317.952 55.230 316.765 55.167Q316.515 55.480 316.671 55.542Q316.827 55.605 316.952 56.105Q316.077 55.980 315.702 56.230Q315.327 56.480 314.765 56.605Q313.327 56.167 312.359 55.011Q311.390 53.855 310.671 52.480Q309.952 51.105 309.421 49.667Q308.890 48.230 308.327 47.167Q308.327 46.917 308.546 46.949Q308.765 46.980 308.952 46.980Q308.640 46.355 308.484 45.574Q308.327 44.792 307.890 44.292Q309.702 40.417 311.765 36.199Q313.827 31.980 315.921 27.636Q318.015 23.292 320.109 18.886Q322.202 14.480 324.140 10.230Q325.890 10.855 327.546 11.699Q329.202 12.542 330.577 13.667Q331.952 14.792 332.921 16.261Q333.890 17.730 334.202 19.605Q334.077 19.980 333.890 19.855Q333.702 19.730 333.577 19.980Q333.890 20.355 333.921 20.511Q333.952 20.667 333.890 20.824Q333.827 20.980 333.827 21.230Q333.827 21.480 334.140 21.917Q333.827 21.855 333.702 22.011Q333.577 22.167 333.265 22.042Q333.577 22.917 333.452 23.417Q333.327 23.917 333.077 24.324Q332.827 24.730 332.671 25.199Q332.515 25.667 332.765 26.480Q332.515 26.480 332.421 26.574Q332.327 26.667 332.265 26.792Q332.202 26.917 332.109 27.011Q332.015 27.105 331.765 27.042Q331.952 28.667 331.890 30.324Q331.827 31.980 331.765 33.699Q331.702 35.417 331.765 37.230Q331.827 39.042 332.265 40.980Q334.952 39.417 336.609 36.917Q338.265 34.417 339.234 31.355Q340.202 28.292 340.734 24.792Q341.265 21.292 341.827 17.667Q342.515 16.980 342.921 15.980Q343.327 14.980 343.609 13.917Q343.890 12.855 344.171 11.761Q344.452 10.667 344.952 9.792Q346.077 9.917 346.859 10.449Q347.640 10.980 348.327 11.636Q349.015 12.292 349.765 12.855Q350.515 13.417 351.640 13.605Q352.515 14.855 353.265 16.011Q354.015 17.167 354.265 18.605Q353.890 19.230 353.702 19.980Q353.515 20.730 353.296 21.480Q353.077 22.230 352.702 22.855Q352.327 23.480 351.640 23.917Q351.452 25.792 351.077 27.417Q350.702 29.042 350.390 30.605Q350.077 32.167 349.827 33.855Q349.577 35.542 349.640 37.542Q349.077 39.355 348.390 41.261Q347.702 43.167 347.390 44.792Q346.202 45.730 345.515 47.105Q344.827 48.480 344.077 49.855Q343.765 50.105 343.702 49.949Q343.640 49.792 343.140 49.730Q343.202 50.292 342.921 50.449Q342.640 50.605 342.952 51.355Q341.890 51.855 341.077 52.667Q340.265 53.480 339.296 54.167Q338.327 54.855 337.046 55.074Q335.765 55.292 333.702 54.542Q330.640 52.292 328.202 49.355Q325.765 46.417 324.327 42.417Q323.702 42.605 323.390 43.230Q323.077 43.855 322.827 44.542Q322.577 45.230 322.327 45.792Q322.077 46.355 321.577 46.355Q321.452 46.917 321.109 47.386Q320.765 47.855 320.452 48.324Q320.140 48.792 319.984 49.355Q319.827 49.917 320.140 50.605 M357.420 54.355Q356.920 53.855 356.701 53.167Q356.482 52.480 355.670 52.042Q355.545 51.105 355.326 49.886Q355.107 48.667 354.889 47.386Q354.670 46.105 354.576 44.824Q354.482 43.542 354.670 42.480Q354.795 41.917 355.076 41.417Q355.357 40.917 355.639 40.449Q355.920 39.980 356.076 39.480Q356.232 38.980 356.107 38.480Q356.482 38.417 356.576 38.074Q356.670 37.730 357.170 37.855Q357.607 36.480 358.107 35.292Q358.607 34.105 359.170 32.980Q359.732 31.855 360.326 30.699Q360.920 29.542 361.420 28.105Q360.357 27.105 359.889 25.949Q359.420 24.792 359.170 23.605Q358.920 22.417 358.795 21.199Q358.670 19.980 358.295 18.730Q359.045 17.605 360.107 16.886Q361.170 16.167 362.451 15.699Q363.732 15.230 365.232 14.949Q366.732 14.667 368.420 14.292Q371.420 13.355 373.795 12.824Q376.170 12.292 378.420 11.949Q380.670 11.605 383.107 11.324Q385.545 11.042 388.732 10.480Q388.795 10.667 388.951 10.667Q389.107 10.667 389.357 10.667Q389.545 11.105 390.045 11.105Q390.045 10.917 390.014 10.761Q389.982 10.605 389.982 10.480Q390.107 10.480 390.326 10.542Q390.545 10.605 390.701 10.667Q390.857 10.730 390.982 10.636Q391.107 10.542 391.045 10.230Q391.795 11.542 392.982 12.386Q394.170 13.230 395.607 13.855Q395.670 14.417 395.639 14.667Q395.607 14.917 395.545 15.136Q395.482 15.355 395.482 15.636Q395.482 15.917 395.607 16.417Q394.607 18.105 393.326 19.042Q392.045 19.980 390.607 20.480Q389.170 20.980 387.576 21.230Q385.982 21.480 384.326 21.761Q382.670 22.042 380.982 22.542Q379.295 23.042 377.670 24.042Q377.170 23.855 376.764 23.886Q376.357 23.917 375.920 24.042Q375.482 24.167 374.951 24.292Q374.420 24.417 373.670 24.292Q373.170 24.730 372.514 24.917Q371.857 25.105 371.170 25.292Q371.482 25.980 371.451 26.667Q371.420 27.355 371.607 27.855Q374.232 28.105 377.420 27.824Q380.607 27.542 383.670 27.417Q383.732 27.730 383.607 27.855Q383.482 27.980 383.482 28.292Q384.045 28.667 384.545 29.230Q385.045 29.792 385.576 30.324Q386.107 30.855 386.670 31.199Q387.232 31.542 387.982 31.480Q388.295 32.105 388.420 32.792Q388.545 33.480 388.232 34.230Q386.982 35.042 385.795 35.886Q384.607 36.730 383.326 37.417Q382.045 38.105 380.545 38.542Q379.045 38.980 377.295 38.917Q376.982 38.917 376.764 38.917Q376.545 38.917 376.232 38.667Q375.607 38.980 374.576 38.886Q373.545 38.792 372.857 39.105Q371.982 38.792 370.826 38.792Q369.670 38.792 368.795 38.480Q367.670 40.105 366.670 41.886Q365.670 43.667 364.920 45.667Q367.482 46.042 369.170 45.980Q370.857 45.917 372.357 45.730Q373.857 45.542 375.451 45.355Q377.045 45.167 379.357 45.230Q380.920 44.480 382.951 44.199Q384.982 43.917 386.732 43.355Q387.357 43.542 387.795 44.074Q388.232 44.605 388.639 45.136Q389.045 45.667 389.482 46.042Q389.920 46.417 390.607 46.292Q390.920 46.605 391.014 47.042Q391.107 47.480 391.201 47.855Q391.295 48.230 391.482 48.449Q391.670 48.667 392.170 48.605Q390.982 51.042 389.514 52.355Q388.045 53.667 386.201 54.386Q384.357 55.105 382.076 55.449Q379.795 55.792 376.982 56.292Q376.295 56.417 375.826 56.261Q375.357 56.105 374.857 56.105Q373.107 56.417 370.701 56.730Q368.295 57.042 365.857 56.980Q363.420 56.917 361.170 56.355Q358.920 55.792 357.420 54.355" fill="#fafaf7"/>
    <path id="tagline"   d="M41.693 88.600L39.497 88.600L39.497 77.428L42.448 77.428Q43.375 77.428 43.918 77.841Q44.460 78.253 44.695 79.015Q44.930 79.777 44.930 80.830Q44.930 81.846 44.733 82.598Q44.537 83.350 44.032 83.763Q43.527 84.176 42.601 84.176L41.693 84.176L41.693 88.600M41.693 79.466L41.693 82.170L41.820 82.170Q42.442 82.170 42.581 81.821Q42.721 81.472 42.721 80.792Q42.721 80.158 42.585 79.812Q42.448 79.466 41.940 79.466 M51.851 88.600L49.693 88.600L49.693 77.428L51.851 77.428 M59.503 88.702Q58.290 88.702 57.551 87.946Q56.811 87.191 56.811 85.832L56.811 80.678Q56.811 79.053 57.455 78.190Q58.100 77.327 59.553 77.327Q60.347 77.327 60.966 77.619Q61.585 77.911 61.940 78.491Q62.296 79.072 62.296 79.954L62.296 81.884L60.074 81.884L60.074 80.234Q60.074 79.732 59.947 79.558Q59.820 79.383 59.553 79.383Q59.242 79.383 59.134 79.609Q59.026 79.834 59.026 80.208L59.026 85.801Q59.026 86.264 59.163 86.454Q59.299 86.645 59.553 86.645Q59.839 86.645 59.956 86.410Q60.074 86.175 60.074 85.801L60.074 83.788L62.321 83.788L62.321 85.902Q62.321 87.375 61.578 88.038Q60.836 88.702 59.503 88.702 M69.445 88.600L67.224 88.600L67.224 77.428L69.433 77.428L69.433 81.903L70.474 77.428L72.721 77.428L71.470 82.544L72.981 88.600L70.664 88.600L69.445 83.192 M82.054 88.600L77.522 88.600L77.522 77.428L79.756 77.428L79.756 86.696L82.054 86.696 M91.464 88.600L86.849 88.600L86.849 77.428L91.318 77.428L91.318 79.586L89.121 79.586L89.121 81.764L91.229 81.764L91.229 83.865L89.121 83.865L89.121 86.423L91.464 86.423 M99.388 88.600L96.360 88.600L96.360 77.428L99.388 77.428Q100.606 77.428 101.162 78.022Q101.717 78.615 101.717 79.980L101.717 80.469Q101.717 81.256 101.435 81.745Q101.152 82.233 100.575 82.386Q101.330 82.576 101.587 83.277Q101.844 83.979 101.844 84.988Q101.844 86.074 101.641 86.886Q101.438 87.699 100.905 88.149Q100.372 88.600 99.388 88.600M98.543 79.155L98.543 81.637L99 81.637Q99.312 81.637 99.400 81.395Q99.489 81.154 99.489 80.818L99.489 79.694Q99.489 79.155 99.013 79.155L98.543 79.155M98.766 86.632Q99.635 86.632 99.635 85.807L99.635 84.411Q99.635 83.934 99.492 83.658Q99.350 83.382 98.956 83.382L98.543 83.382L98.543 86.620Q98.683 86.632 98.766 86.632 M108.607 88.600L106.436 88.600L107.515 77.428L111.305 77.428L112.365 88.600L110.251 88.600L110.092 86.797L108.746 86.797L108.607 88.600M109.330 79.332L108.905 85.014L109.921 85.014L109.432 79.332 M121.742 88.600L117.210 88.600L117.210 77.428L119.444 77.428L119.444 86.696L121.742 86.696 M131.069 88.600L126.537 88.600L126.537 77.428L128.771 77.428L128.771 86.696L131.069 86.696  M146.264 88.600L144.029 88.600L144.029 79.574L142.703 79.574L142.703 77.428L147.591 77.428L147.591 79.574L146.264 79.574 M155.039 88.702Q153.699 88.702 152.991 87.892Q152.284 87.083 152.284 85.553L152.284 80.246Q152.284 78.812 152.985 78.069Q153.687 77.327 155.039 77.327Q156.391 77.327 157.092 78.069Q157.793 78.812 157.793 80.246L157.793 85.553Q157.793 87.083 157.086 87.892Q156.378 88.702 155.039 88.702M155.058 86.645Q155.565 86.645 155.565 85.661L155.565 80.208Q155.565 79.383 155.070 79.383Q154.512 79.383 154.512 80.227L154.512 85.674Q154.512 86.194 154.639 86.420Q154.766 86.645 155.058 86.645 M165.438 88.702Q164.042 88.702 163.382 87.918Q162.722 87.134 162.722 85.610L162.722 77.428L164.892 77.428L164.892 85.521Q164.892 85.801 164.924 86.058Q164.956 86.315 165.070 86.480Q165.184 86.645 165.438 86.645Q165.699 86.645 165.813 86.483Q165.927 86.321 165.956 86.061Q165.984 85.801 165.984 85.521L165.984 77.428L168.155 77.428L168.155 85.610Q168.155 87.134 167.495 87.918Q166.835 88.702 165.438 88.702 M175.432 88.600L173.172 88.600L173.172 77.428L176.600 77.428Q177.457 77.428 177.895 77.819Q178.333 78.209 178.482 78.910Q178.631 79.612 178.631 80.558Q178.631 81.472 178.399 82.017Q178.168 82.563 177.527 82.773Q178.053 82.881 178.266 83.297Q178.479 83.712 178.479 84.372L178.479 88.600L176.276 88.600L176.276 84.226Q176.276 83.738 176.076 83.620Q175.876 83.503 175.432 83.503L175.432 88.600M175.445 79.497L175.445 81.567L175.984 81.567Q176.447 81.567 176.447 80.558Q176.447 79.904 176.346 79.701Q176.244 79.497 175.965 79.497 M185.711 88.600L183.527 88.600L183.527 77.428L185.825 77.428L186.854 82.779L186.854 77.428L189.012 77.428L189.012 88.600L186.828 88.600L185.711 83.014 M196.028 88.600L193.857 88.600L194.936 77.428L198.726 77.428L199.786 88.600L197.672 88.600L197.514 86.797L196.168 86.797L196.028 88.600M196.752 79.332L196.327 85.014L197.342 85.014L196.853 79.332 M206.650 88.600L204.632 88.600L204.632 77.428L208.034 77.428L208.973 84.239L209.906 77.428L213.341 77.428L213.341 88.600L211.297 88.600L211.297 80.551L210.014 88.600L208.009 88.600L206.650 80.551 M223.106 88.600L218.491 88.600L218.491 77.428L222.960 77.428L222.960 79.586L220.763 79.586L220.763 81.764L222.871 81.764L222.871 83.865L220.763 83.865L220.763 86.423L223.106 86.423 M230.185 88.600L228.002 88.600L228.002 77.428L230.300 77.428L231.328 82.779L231.328 77.428L233.486 77.428L233.486 88.600L231.303 88.600L230.185 83.014 M241.829 88.600L239.595 88.600L239.595 79.574L238.268 79.574L238.268 77.428L243.156 77.428L243.156 79.574L241.829 79.574  M257.163 88.600L255.145 88.600L255.145 77.428L258.547 77.428L259.487 84.239L260.420 77.428L263.854 77.428L263.854 88.600L261.810 88.600L261.810 80.551L260.528 88.600L258.522 88.600L257.163 80.551 M270.870 88.600L268.699 88.600L269.779 77.428L273.568 77.428L274.628 88.600L272.514 88.600L272.356 86.797L271.010 86.797L270.870 88.600M271.594 79.332L271.169 85.014L272.184 85.014L271.696 79.332 M281.657 88.600L279.474 88.600L279.474 77.428L281.772 77.428L282.800 82.779L282.800 77.428L284.958 77.428L284.958 88.600L282.775 88.600L281.657 83.014 M291.975 88.600L289.804 88.600L290.883 77.428L294.672 77.428L295.732 88.600L293.619 88.600L293.460 86.797L292.114 86.797L291.975 88.600M292.698 79.332L292.273 85.014L293.289 85.014L292.800 79.332 M302.882 88.702Q300.489 88.702 300.489 85.274L300.489 80.456Q300.489 77.327 303.231 77.327Q304.361 77.327 304.964 77.780Q305.567 78.234 305.796 79.104Q306.024 79.974 306.024 81.224L303.841 81.224L303.841 80.234Q303.841 79.872 303.742 79.628Q303.644 79.383 303.333 79.383Q302.946 79.383 302.822 79.643Q302.698 79.904 302.698 80.215L302.698 85.629Q302.698 86.080 302.815 86.362Q302.933 86.645 303.276 86.645Q303.631 86.645 303.749 86.362Q303.866 86.080 303.866 85.617L303.866 84.023L303.269 84.023L303.269 82.094L305.999 82.094L305.999 88.600L305.104 88.600L304.723 87.661Q304.139 88.702 302.882 88.702 M315.656 88.600L311.041 88.600L311.041 77.428L315.510 77.428L315.510 79.586L313.314 79.586L313.314 81.764L315.421 81.764L315.421 83.865L313.314 83.865L313.314 86.423L315.656 86.423 M322.571 88.600L320.552 88.600L320.552 77.428L323.955 77.428L324.894 84.239L325.827 77.428L329.261 77.428L329.261 88.600L327.217 88.600L327.217 80.551L325.935 88.600L323.929 88.600L322.571 80.551 M339.026 88.600L334.411 88.600L334.411 77.428L338.880 77.428L338.880 79.586L336.684 79.586L336.684 81.764L338.791 81.764L338.791 83.865L336.684 83.865L336.684 86.423L339.026 86.423 M346.106 88.600L343.923 88.600L343.923 77.428L346.220 77.428L347.249 82.779L347.249 77.428L349.407 77.428L349.407 88.600L347.223 88.600L346.106 83.014 M357.750 88.600L355.516 88.600L355.516 79.574L354.189 79.574L354.189 77.428L359.077 77.428L359.077 79.574L357.750 79.574"      fill="#fafaf7" opacity="0.78"/>
  </g>
</svg>
